<?xml version="1.0" encoding="UTF-8" standalone="no"?>
<!DOCTYPE svg PUBLIC "-//W3C//DTD SVG 1.1//EN" "http://www.w3.org/Graphics/SVG/1.1/DTD/svg11.dtd">
<svg width="40px" height="40px" version="1.1" xmlns="http://www.w3.org/2000/svg" xmlns:xlink="http://www.w3.org/1999/xlink" xml:space="preserve" xmlns:serif="http://www.serif.com/" style="fill-rule:evenodd;clip-rule:evenodd;stroke-linejoin:round;stroke-miterlimit:2;">
    <path d="M0,20C0,10.572 0,5.858 2.929,2.929C5.858,0 10.572,0 20,0C29.428,0 34.142,0 37.071,2.929C40,5.858 40,10.572 40,20C40,29.428 40,34.142 37.071,37.071C34.142,40 29.428,40 20,40C10.572,40 5.858,40 2.929,37.071C0,34.142 0,29.428 0,20Z" style="fill:rgb(36,58,90);fill-rule:nonzero;"/>
    <path d="M24,26C24.552,26 25.01,26.452 24.9,26.993C24.706,27.949 24.235,28.836 23.536,29.536C22.598,30.473 21.326,31 20,31C18.674,31 17.402,30.473 16.465,29.536C15.765,28.836 15.294,27.949 15.1,26.993C14.99,26.452 15.448,26 16,26L24,26Z" style="fill:rgb(45,248,187);fill-rule:nonzero;"/>
    <path d="M26.102,17.777C25.569,17.919 25.242,18.478 25.513,18.959C25.797,19.466 26.191,19.908 26.67,20.251C27.422,20.79 28.338,21.052 29.262,20.991C30.185,20.931 31.059,20.552 31.734,19.92C32.41,19.287 32.845,18.44 32.966,17.522C33.087,16.605 32.886,15.674 32.397,14.888C31.908,14.102 31.162,13.51 30.286,13.212C29.41,12.915 28.457,12.93 27.591,13.256C27.04,13.464 26.545,13.789 26.139,14.205C25.753,14.6 25.924,15.224 26.402,15.5L26.909,15.793C27.681,16.238 27.529,17.394 26.668,17.625L26.102,17.777Z" style="fill:rgb(45,248,187);fill-rule:nonzero;"/>
    <path d="M13.898,17.777C14.431,17.919 14.758,18.478 14.488,18.959C14.203,19.466 13.809,19.908 13.33,20.251C12.578,20.79 11.662,21.052 10.739,20.991C9.815,20.931 8.941,20.552 8.266,19.92C7.59,19.287 7.155,18.44 7.034,17.522C6.914,16.605 7.115,15.674 7.603,14.888C8.092,14.102 8.838,13.51 9.714,13.212C10.591,12.915 11.543,12.93 12.409,13.256C12.961,13.464 13.456,13.789 13.862,14.205C14.248,14.6 14.076,15.224 13.598,15.5L13.091,15.793C12.319,16.238 12.472,17.394 13.332,17.625L13.898,17.777Z" style="fill:rgb(45,248,187);fill-rule:nonzero;"/>
</svg>
